<svg width="6" height="9" viewBox="0 0 6 9" fill="none" xmlns="http://www.w3.org/2000/svg">
<path d="M5.20409 7.49474C5.24195 7.53229 5.26324 7.5834 5.26324 7.63672C5.26324 7.69004 5.24195 7.74115 5.20409 7.7787L4.78016 8.20263C4.74387 8.2413 4.69321 8.26323 4.64018 8.26323C4.58715 8.26323 4.53649 8.2413 4.5002 8.20263L0.824759 4.52719C0.76849 4.47099 0.736842 4.39475 0.736772 4.31522V4.21124C0.736842 4.13171 0.76849 4.05547 0.824759 3.99927L4.5002 0.323828C4.53649 0.285163 4.58715 0.26323 4.64018 0.26323C4.69321 0.26323 4.74387 0.285163 4.78016 0.323828L5.20409 0.747763C5.24195 0.785311 5.26324 0.836423 5.26324 0.889742C5.26324 0.943061 5.24195 0.994173 5.20409 1.03172L1.97258 4.26323L5.20409 7.49474Z" fill="white"/>
</svg>
