<svg width="21" height="21" viewBox="0 0 21 21" fill="none" xmlns="http://www.w3.org/2000/svg">
<path d="M4.94601 4.23256L4.859 3.84102L4.41924 1.86201C4.40747 1.80909 4.36063 1.77162 4.30665 1.77162H0.615242C0.551564 1.77162 0.500008 1.82318 0.500008 1.88686C0.500008 1.95054 0.551564 2.00209 0.615242 2.00209H3.81318H4.21434L4.30129 2.39372L6.52252 12.3896L6.61202 12.7922L6.23376 12.9566C5.75521 13.1646 5.42188 13.6411 5.42188 14.1915C5.42188 14.9331 6.02603 15.5372 6.76759 15.5372H17.9238C17.9875 15.5372 18.0391 15.4857 18.0391 15.422C18.0391 15.3583 17.9875 15.3068 17.9238 15.3068H6.76759C6.15226 15.3068 5.65235 14.8069 5.65235 14.1915C5.65235 13.5808 6.1447 13.0839 6.75373 13.0766C6.75741 13.0765 6.7611 13.0765 6.7648 13.0765M4.94601 4.23256L6.76694 13.0765H6.76598M4.94601 4.23256H5.3471M4.94601 4.23256H5.3471M6.7648 13.0765L6.76598 13.5765V13.0765M6.7648 13.0765C6.76519 13.0765 6.76559 13.0765 6.76598 13.0765M6.7648 13.0765L6.76598 13.0765M5.3471 4.23256H20.3848C20.4207 4.23256 20.4547 4.24939 20.4767 4.2783C20.4985 4.30724 20.5055 4.34461 20.4955 4.37946C20.4955 4.37948 20.4955 4.3795 20.4955 4.37952L18.0346 12.9927M5.3471 4.23256L18.0346 12.9927M18.0346 12.9927L18.0346 12.9927L18.0346 12.9927ZM20.0499 5.10039L20.232 4.46303H19.5691H5.62043H4.99712L5.13234 5.0715L6.77296 12.4543L6.85997 12.8458H7.26105H17.4597H17.8368L17.9404 12.4832L20.0499 5.10039Z" fill="black" stroke="white"/>
<path d="M7.99804 19.2284C7.25648 19.2284 6.65234 18.6243 6.65234 17.8827C6.65234 17.1412 7.25648 16.537 7.99804 16.537C8.7396 16.537 9.34375 17.1412 9.34375 17.8827C9.34375 18.6243 8.7396 19.2284 7.99804 19.2284ZM9.11328 17.8827C9.11328 17.2674 8.61336 16.7675 7.99804 16.7675C7.38272 16.7675 6.88281 17.2674 6.88281 17.8827C6.88281 18.4981 7.38272 18.998 7.99804 18.998C8.61336 18.998 9.11328 18.4981 9.11328 17.8827Z" fill="black" stroke="white"/>
<path d="M16.6933 19.2284C15.9518 19.2284 15.3476 18.6243 15.3476 17.8827C15.3476 17.1412 15.9518 16.537 16.6933 16.537C17.4349 16.537 18.039 17.1412 18.039 17.8827C18.039 18.6243 17.4349 19.2284 16.6933 19.2284ZM17.8086 17.8827C17.8086 17.2674 17.3087 16.7675 16.6933 16.7675C16.078 16.7675 15.5781 17.2674 15.5781 17.8827C15.5781 18.4981 16.078 18.998 16.6933 18.998C17.3087 18.998 17.8086 18.4981 17.8086 17.8827Z" fill="black" stroke="white"/>
</svg>
