<svg width="22" height="17" viewBox="0 0 22 17" fill="none" xmlns="http://www.w3.org/2000/svg">
<path d="M1.62775 2.87494L20.3709 2.87494C20.7158 2.87494 20.9955 2.45491 20.9953 1.93747C20.9951 1.41995 20.715 1 20.3702 1L1.62702 1C1.28213 1 1.00243 1.42003 1.00263 1.93747C1.00283 2.45491 1.28291 2.87494 1.62775 2.87494Z" fill="white" stroke="black" stroke-width="0.2"/>
<path d="M20.3705 7.5624L1.62733 7.5624C1.28244 7.5624 1.00273 7.98243 1.00294 8.49986C1.00314 9.0173 1.28322 9.43733 1.62805 9.43733L20.3712 9.43733C20.7161 9.43733 20.9958 9.0173 20.9956 8.49987C20.9954 7.98243 20.7154 7.5624 20.3705 7.5624Z" fill="white" stroke="black" stroke-width="0.2"/>
<path d="M20.3702 14.125L7.87499 14.125C7.53011 14.125 7.2504 14.545 7.25059 15.0625C7.25078 15.58 7.53085 15.9999 7.87568 15.9999L20.3709 15.9999C20.7158 15.9999 20.9955 15.5799 20.9953 15.0625C20.9952 14.545 20.7151 14.125 20.3702 14.125Z" fill="white" stroke="black" stroke-width="0.2"/>
</svg>
